<mxfile host="65bd71144e">
    <diagram id="C5RBs43oDa-KdzZeNtuy" name="Page-1">
        <mxGraphModel dx="431" dy="634" grid="0" gridSize="10" guides="1" tooltips="1" connect="1" arrows="1" fold="1" page="1" pageScale="1" pageWidth="827" pageHeight="1169" background="#FFFFFF" math="0" shadow="0">
            <root>
                <mxCell id="WIyWlLk6GJQsqaUBKTNV-0"/>
                <mxCell id="WIyWlLk6GJQsqaUBKTNV-1" parent="WIyWlLk6GJQsqaUBKTNV-0"/>
                <mxCell id="IHLvhDC02hpkUleVaD9N-0" value="&lt;div style=&quot;&quot;&gt;&lt;span style=&quot;font-size: 15px; background-color: initial;&quot;&gt;Common/Interfaces/Authentication&amp;nbsp; &amp;nbsp;&lt;/span&gt;&lt;/div&gt;" style="rounded=1;arcSize=9;align=right;spacingLeft=5;strokeColor=#d6b656;html=1;strokeWidth=2;fontSize=12;dashed=1;fillColor=#fff2cc;" parent="WIyWlLk6GJQsqaUBKTNV-1" vertex="1">
                    <mxGeometry x="10" y="25.65" width="310" height="44.35" as="geometry"/>
                </mxCell>
                <mxCell id="IHLvhDC02hpkUleVaD9N-1" value="" style="image;aspect=fixed;html=1;points=[];align=center;fontSize=12;image=img/lib/azure2/general/Folder_Blank.svg;" parent="WIyWlLk6GJQsqaUBKTNV-1" vertex="1">
                    <mxGeometry x="10" y="20" width="60" height="48.69" as="geometry"/>
                </mxCell>
                <mxCell id="IHLvhDC02hpkUleVaD9N-2" value="" style="line;strokeWidth=2;html=1;" parent="WIyWlLk6GJQsqaUBKTNV-1" vertex="1">
                    <mxGeometry x="10" y="90" width="800" height="10" as="geometry"/>
                </mxCell>
                <mxCell id="IHLvhDC02hpkUleVaD9N-3" value="&lt;div style=&quot;&quot;&gt;&lt;span style=&quot;font-size: 15px; background-color: initial;&quot;&gt;Services/Authentication&amp;nbsp;&amp;nbsp;&lt;/span&gt;&lt;/div&gt;" style="rounded=1;arcSize=9;align=right;spacingLeft=5;strokeColor=#d6b656;html=1;strokeWidth=2;fontSize=12;dashed=1;fillColor=#fff2cc;" parent="WIyWlLk6GJQsqaUBKTNV-1" vertex="1">
                    <mxGeometry x="10" y="255.65" width="240" height="44.35" as="geometry"/>
                </mxCell>
                <mxCell id="IHLvhDC02hpkUleVaD9N-4" value="" style="image;aspect=fixed;html=1;points=[];align=center;fontSize=12;image=img/lib/azure2/general/Folder_Blank.svg;" parent="WIyWlLk6GJQsqaUBKTNV-1" vertex="1">
                    <mxGeometry x="10" y="250" width="60" height="48.69" as="geometry"/>
                </mxCell>
                <mxCell id="IHLvhDC02hpkUleVaD9N-5" value="" style="line;strokeWidth=2;html=1;" parent="WIyWlLk6GJQsqaUBKTNV-1" vertex="1">
                    <mxGeometry x="10" y="320" width="800" height="10" as="geometry"/>
                </mxCell>
                <mxCell id="IHLvhDC02hpkUleVaD9N-6" value="&lt;&lt;interface&gt;&gt;&#10;IJwtTokenGenerator" style="swimlane;fontStyle=2;align=center;verticalAlign=top;childLayout=stackLayout;horizontal=1;startSize=40;horizontalStack=0;resizeParent=1;resizeLast=0;collapsible=1;marginBottom=0;rounded=0;shadow=0;strokeWidth=1;" parent="WIyWlLk6GJQsqaUBKTNV-1" vertex="1">
                    <mxGeometry x="10" y="110" width="290" height="90" as="geometry">
                        <mxRectangle x="230" y="140" width="160" height="26" as="alternateBounds"/>
                    </mxGeometry>
                </mxCell>
                <mxCell id="IHLvhDC02hpkUleVaD9N-7" value="" style="line;html=1;strokeWidth=1;align=left;verticalAlign=middle;spacingTop=-1;spacingLeft=3;spacingRight=3;rotatable=0;labelPosition=right;points=[];portConstraint=eastwest;" parent="IHLvhDC02hpkUleVaD9N-6" vertex="1">
                    <mxGeometry y="40" width="290" height="8" as="geometry"/>
                </mxCell>
                <mxCell id="IHLvhDC02hpkUleVaD9N-8" value="+ GenerateToken(string login): string" style="text;align=left;verticalAlign=top;spacingLeft=4;spacingRight=4;overflow=hidden;rotatable=0;points=[[0,0.5],[1,0.5]];portConstraint=eastwest;" parent="IHLvhDC02hpkUleVaD9N-6" vertex="1">
                    <mxGeometry y="48" width="290" height="26" as="geometry"/>
                </mxCell>
                <mxCell id="IHLvhDC02hpkUleVaD9N-9" value="&lt;&lt;interface&gt;&gt;&#10;IAuthenticationService" style="swimlane;fontStyle=2;align=center;verticalAlign=top;childLayout=stackLayout;horizontal=1;startSize=40;horizontalStack=0;resizeParent=1;resizeLast=0;collapsible=1;marginBottom=0;rounded=0;shadow=0;strokeWidth=1;" parent="WIyWlLk6GJQsqaUBKTNV-1" vertex="1">
                    <mxGeometry x="200" y="340" width="360" height="100" as="geometry">
                        <mxRectangle x="230" y="140" width="160" height="26" as="alternateBounds"/>
                    </mxGeometry>
                </mxCell>
                <mxCell id="IHLvhDC02hpkUleVaD9N-10" value="" style="line;html=1;strokeWidth=1;align=left;verticalAlign=middle;spacingTop=-1;spacingLeft=3;spacingRight=3;rotatable=0;labelPosition=right;points=[];portConstraint=eastwest;" parent="IHLvhDC02hpkUleVaD9N-9" vertex="1">
                    <mxGeometry y="40" width="360" height="8" as="geometry"/>
                </mxCell>
                <mxCell id="IHLvhDC02hpkUleVaD9N-11" value="+ Register(string login, string password, string role): AuthResult" style="text;align=left;verticalAlign=top;spacingLeft=4;spacingRight=4;overflow=hidden;rotatable=0;points=[[0,0.5],[1,0.5]];portConstraint=eastwest;" parent="IHLvhDC02hpkUleVaD9N-9" vertex="1">
                    <mxGeometry y="48" width="360" height="26" as="geometry"/>
                </mxCell>
                <mxCell id="IHLvhDC02hpkUleVaD9N-12" value="+ Login(string login, string password): AuthResult" style="text;align=left;verticalAlign=top;spacingLeft=4;spacingRight=4;overflow=hidden;rotatable=0;points=[[0,0.5],[1,0.5]];portConstraint=eastwest;" parent="IHLvhDC02hpkUleVaD9N-9" vertex="1">
                    <mxGeometry y="74" width="360" height="26" as="geometry"/>
                </mxCell>
                <mxCell id="IHLvhDC02hpkUleVaD9N-13" value="AuthenticationService" style="swimlane;fontStyle=0;align=center;verticalAlign=top;childLayout=stackLayout;horizontal=1;startSize=26;horizontalStack=0;resizeParent=1;resizeLast=0;collapsible=1;marginBottom=0;rounded=0;shadow=0;strokeWidth=1;" parent="WIyWlLk6GJQsqaUBKTNV-1" vertex="1">
                    <mxGeometry x="10" y="510" width="210" height="68" as="geometry">
                        <mxRectangle x="130" y="380" width="160" height="26" as="alternateBounds"/>
                    </mxGeometry>
                </mxCell>
                <mxCell id="IHLvhDC02hpkUleVaD9N-14" value="- _jwtGenerator: IJwtTokenGenerator" style="text;align=left;verticalAlign=top;spacingLeft=4;spacingRight=4;overflow=hidden;rotatable=0;points=[[0,0.5],[1,0.5]];portConstraint=eastwest;" parent="IHLvhDC02hpkUleVaD9N-13" vertex="1">
                    <mxGeometry y="26" width="210" height="26" as="geometry"/>
                </mxCell>
                <mxCell id="IHLvhDC02hpkUleVaD9N-15" value="" style="line;html=1;strokeWidth=1;align=left;verticalAlign=middle;spacingTop=-1;spacingLeft=3;spacingRight=3;rotatable=0;labelPosition=right;points=[];portConstraint=eastwest;" parent="IHLvhDC02hpkUleVaD9N-13" vertex="1">
                    <mxGeometry y="52" width="210" height="8" as="geometry"/>
                </mxCell>
                <mxCell id="IHLvhDC02hpkUleVaD9N-16" value="AuthResult" style="swimlane;fontStyle=0;align=center;verticalAlign=top;childLayout=stackLayout;horizontal=1;startSize=26;horizontalStack=0;resizeParent=1;resizeLast=0;collapsible=1;marginBottom=0;rounded=0;shadow=0;strokeWidth=1;" parent="WIyWlLk6GJQsqaUBKTNV-1" vertex="1">
                    <mxGeometry x="390" y="466" width="160" height="112" as="geometry">
                        <mxRectangle x="340" y="380" width="170" height="26" as="alternateBounds"/>
                    </mxGeometry>
                </mxCell>
                <mxCell id="IHLvhDC02hpkUleVaD9N-17" value="+ Login: string" style="text;align=left;verticalAlign=top;spacingLeft=4;spacingRight=4;overflow=hidden;rotatable=0;points=[[0,0.5],[1,0.5]];portConstraint=eastwest;" parent="IHLvhDC02hpkUleVaD9N-16" vertex="1">
                    <mxGeometry y="26" width="160" height="26" as="geometry"/>
                </mxCell>
                <mxCell id="IHLvhDC02hpkUleVaD9N-18" value="+ Token: string" style="text;align=left;verticalAlign=top;spacingLeft=4;spacingRight=4;overflow=hidden;rotatable=0;points=[[0,0.5],[1,0.5]];portConstraint=eastwest;" parent="IHLvhDC02hpkUleVaD9N-16" vertex="1">
                    <mxGeometry y="52" width="160" height="26" as="geometry"/>
                </mxCell>
                <mxCell id="IHLvhDC02hpkUleVaD9N-19" value="+ AuthStatus: AuthStatus" style="text;align=left;verticalAlign=top;spacingLeft=4;spacingRight=4;overflow=hidden;rotatable=0;points=[[0,0.5],[1,0.5]];portConstraint=eastwest;" parent="IHLvhDC02hpkUleVaD9N-16" vertex="1">
                    <mxGeometry y="78" width="160" height="26" as="geometry"/>
                </mxCell>
                <mxCell id="IHLvhDC02hpkUleVaD9N-20" value="" style="line;html=1;strokeWidth=1;align=left;verticalAlign=middle;spacingTop=-1;spacingLeft=3;spacingRight=3;rotatable=0;labelPosition=right;points=[];portConstraint=eastwest;" parent="IHLvhDC02hpkUleVaD9N-16" vertex="1">
                    <mxGeometry y="104" width="160" height="8" as="geometry"/>
                </mxCell>
                <mxCell id="IHLvhDC02hpkUleVaD9N-21" value="&lt;&lt;Enum&gt;&gt;AuthStatus" style="swimlane;fontStyle=0;align=center;verticalAlign=top;childLayout=stackLayout;horizontal=1;startSize=26;horizontalStack=0;resizeParent=1;resizeLast=0;collapsible=1;marginBottom=0;rounded=0;shadow=0;strokeWidth=1;" parent="WIyWlLk6GJQsqaUBKTNV-1" vertex="1">
                    <mxGeometry x="640" y="466" width="160" height="87" as="geometry">
                        <mxRectangle x="340" y="380" width="170" height="26" as="alternateBounds"/>
                    </mxGeometry>
                </mxCell>
                <mxCell id="IHLvhDC02hpkUleVaD9N-22" value="+ Registered: string" style="text;align=left;verticalAlign=top;spacingLeft=4;spacingRight=4;overflow=hidden;rotatable=0;points=[[0,0.5],[1,0.5]];portConstraint=eastwest;" parent="IHLvhDC02hpkUleVaD9N-21" vertex="1">
                    <mxGeometry y="26" width="160" height="26" as="geometry"/>
                </mxCell>
                <mxCell id="IHLvhDC02hpkUleVaD9N-23" value="+ Logged: string" style="text;align=left;verticalAlign=top;spacingLeft=4;spacingRight=4;overflow=hidden;rotatable=0;points=[[0,0.5],[1,0.5]];portConstraint=eastwest;" parent="IHLvhDC02hpkUleVaD9N-21" vertex="1">
                    <mxGeometry y="52" width="160" height="26" as="geometry"/>
                </mxCell>
                <mxCell id="IHLvhDC02hpkUleVaD9N-24" value="" style="line;html=1;strokeWidth=1;align=left;verticalAlign=middle;spacingTop=-1;spacingLeft=3;spacingRight=3;rotatable=0;labelPosition=right;points=[];portConstraint=eastwest;" parent="IHLvhDC02hpkUleVaD9N-21" vertex="1">
                    <mxGeometry y="78" width="160" height="8" as="geometry"/>
                </mxCell>
                <mxCell id="IHLvhDC02hpkUleVaD9N-25" value="" style="endArrow=none;html=1;edgeStyle=orthogonalEdgeStyle;rounded=0;exitX=1;exitY=0.5;exitDx=0;exitDy=0;entryX=0;entryY=0.5;entryDx=0;entryDy=0;" parent="WIyWlLk6GJQsqaUBKTNV-1" source="IHLvhDC02hpkUleVaD9N-18" target="IHLvhDC02hpkUleVaD9N-22" edge="1">
                    <mxGeometry relative="1" as="geometry">
                        <mxPoint x="540" y="533" as="sourcePoint"/>
                        <mxPoint x="700" y="533" as="targetPoint"/>
                    </mxGeometry>
                </mxCell>
                <mxCell id="IHLvhDC02hpkUleVaD9N-26" value="0" style="edgeLabel;resizable=0;html=1;align=left;verticalAlign=bottom;" parent="IHLvhDC02hpkUleVaD9N-25" connectable="0" vertex="1">
                    <mxGeometry x="-1" relative="1" as="geometry"/>
                </mxCell>
                <mxCell id="IHLvhDC02hpkUleVaD9N-27" value="1" style="edgeLabel;resizable=0;html=1;align=right;verticalAlign=bottom;" parent="IHLvhDC02hpkUleVaD9N-25" connectable="0" vertex="1">
                    <mxGeometry x="1" relative="1" as="geometry"/>
                </mxCell>
                <mxCell id="IHLvhDC02hpkUleVaD9N-28" value="" style="endArrow=block;endSize=12;endFill=0;html=1;rounded=0;exitX=0.346;exitY=-0.029;exitDx=0;exitDy=0;exitPerimeter=0;strokeWidth=1;" parent="WIyWlLk6GJQsqaUBKTNV-1" source="IHLvhDC02hpkUleVaD9N-13" edge="1">
                    <mxGeometry x="0.25" width="160" relative="1" as="geometry">
                        <mxPoint x="80" y="490" as="sourcePoint"/>
                        <mxPoint x="200" y="350" as="targetPoint"/>
                        <Array as="points">
                            <mxPoint x="80" y="350"/>
                            <mxPoint x="110" y="350"/>
                            <mxPoint x="140" y="350"/>
                        </Array>
                        <mxPoint as="offset"/>
                    </mxGeometry>
                </mxCell>
            </root>
        </mxGraphModel>
    </diagram>
</mxfile>